<svg width="1440" height="700" viewBox="0 0 1440 700" fill="none" xmlns="http://www.w3.org/2000/svg">
<mask id="mask0_10_1690" style="mask-type:alpha" maskUnits="userSpaceOnUse" x="0" y="0" width="1440" height="700">
<rect width="1440" height="700" fill="#C4C4C4"/>
</mask>
<g mask="url(#mask0_10_1690)">
<path opacity="0.4" d="M1186.43 387.344C1179.2 383.178 1174.02 383.093 1170.87 387.004C1167.64 390.915 1166.11 397.546 1166.11 406.812V456.969C1166.11 466.49 1165.26 474.396 1163.48 480.687C1161.69 487.233 1158.72 491.824 1154.64 494.544C1150.64 497.35 1145.2 498.03 1138.32 496.755C1131.6 495.564 1123.19 491.994 1113.16 486.213L1108.4 483.408V443.877L1114.43 447.363C1121.66 451.528 1126.42 452.038 1128.8 449.063C1131.35 446.087 1132.62 439.967 1132.62 430.7V386.494C1132.62 374.932 1133.73 365.836 1136.02 359.205C1138.23 352.489 1142.74 348.238 1149.45 346.368C1142.74 336.762 1138.23 327.24 1136.02 317.974C1133.81 308.708 1132.71 298.336 1132.71 286.775V242.568C1132.71 233.302 1131.43 225.651 1128.88 219.785C1126.5 214.004 1121.66 208.989 1114.52 204.823L1108.48 201.338V161.807L1113.24 164.612C1123.27 170.393 1131.69 176.599 1138.4 183.145C1145.29 189.776 1150.73 196.747 1154.72 204.228C1158.89 211.709 1161.86 219.7 1163.56 228.286C1165.35 236.618 1166.2 245.544 1166.2 255.065V305.222C1166.2 314.489 1167.81 322.99 1170.96 330.556C1174.19 338.122 1179.37 344.073 1186.51 348.153L1186.43 387.344Z" fill="url(#paint0_linear_10_1690)"/>
<path opacity="0.4" d="M1004.35 242.058C1011.57 246.224 1016.76 246.309 1019.9 242.398C1023.13 238.488 1024.66 231.857 1024.66 222.591V172.433C1024.66 162.912 1025.51 155.006 1027.3 148.715C1029.09 142.169 1031.98 137.578 1035.97 134.773C1040.14 132.053 1045.58 131.373 1052.29 132.563C1059.18 133.838 1067.68 137.408 1077.71 143.274L1082.47 146.08V185.61L1076.43 182.125C1069.21 177.959 1064.36 177.364 1061.81 180.339C1059.43 183.4 1058.24 189.521 1058.24 198.872V243.078C1058.24 254.555 1057.14 263.736 1054.84 270.367C1052.63 277.083 1048.13 281.334 1041.41 283.204C1048.13 292.811 1052.63 302.332 1054.84 311.598C1057.05 320.865 1058.16 331.236 1058.16 342.798V387.004C1058.16 396.27 1059.35 403.836 1061.73 409.702C1064.28 415.568 1069.12 420.669 1076.35 424.749L1082.38 428.235V467.766L1077.62 464.96C1067.59 459.179 1059.09 452.888 1052.21 446.342C1045.49 439.797 1040.05 432.826 1035.89 425.259C1031.89 417.863 1029 409.872 1027.3 401.371C1025.51 393.04 1024.66 384.114 1024.66 374.592V324.435C1024.66 315.169 1023.05 306.668 1019.9 299.101C1016.67 291.535 1011.49 285.585 1004.35 281.504V242.058Z" fill="url(#paint1_linear_10_1690)"/>
<path opacity="0.15" d="M1211 142.934L1390.44 246.564L1390.36 676.81L1210.91 573.266L1211 142.934Z" fill="url(#paint2_linear_10_1690)"/>
<path d="M1177.25 199.297L1320.06 281.674V321.205L1177.25 238.828V199.297Z" fill="#587298"/>
<path opacity="0.2" d="M1234.37 382.329L1369.7 460.455V580.067L1234.37 501.941V382.329Z" fill="url(#paint3_linear_10_1690)"/>
<path opacity="0.15" d="M1233.01 290.6L1370.38 369.916V383.433L1233.01 304.117V290.6Z" fill="white"/>
<path opacity="0.15" d="M1233.01 317.804L1351.76 386.324V399.841L1233.01 331.321V317.804Z" fill="white"/>
<path opacity="0.15" d="M1233.01 344.668L1333.83 402.816V416.333L1233.01 358.185V344.668Z" fill="white"/>
<path opacity="0.2" d="M1211 142.934L1390.44 246.564V304.202L1210.91 200.658L1211 142.934Z" fill="url(#paint4_linear_10_1690)"/>
<path opacity="0.2" d="M1255.79 198.022C1255.79 206.778 1250.69 210.859 1244.4 207.203C1238.11 203.548 1233.01 193.602 1233.01 184.845C1233.01 176.089 1238.11 172.008 1244.4 175.664C1250.69 179.319 1255.79 189.351 1255.79 198.022Z" fill="white"/>
<path opacity="0.15" d="M887.637 274.703L1440 593.499L1439.92 1024L887.552 705.205L887.637 274.703Z" fill="url(#paint5_linear_10_1690)"/>
<path d="M851 380.798L993.723 463.175V502.705L851 420.414V380.798Z" fill="#EA8C4F"/>
<path opacity="0.15" d="M924.869 489.444L1241.77 672.39V685.907L924.869 502.961V489.444Z" fill="white"/>
<path opacity="0.15" d="M924.869 516.648L1198.25 674.43V687.947L924.869 530.165V516.648Z" fill="white"/>
<path opacity="0.15" d="M924.869 543.596L1157.53 677.915V691.432L924.869 557.113V543.596Z" fill="white"/>
<path opacity="0.2" d="M873.016 557.029L1104.99 690.923V810.535L873.016 676.556V557.029Z" fill="url(#paint6_linear_10_1690)"/>
<path opacity="0.15" d="M896.392 601.15L1080.68 707.5V721.017L896.392 614.667V601.15Z" fill="white"/>
<path opacity="0.15" d="M896.392 628.354L1043.96 713.536V727.053L896.392 641.785V628.354Z" fill="white"/>
<path opacity="0.2" d="M887.637 274.703L1439.23 593.159V651.477L887.637 333.106V274.703Z" fill="url(#paint7_linear_10_1690)"/>
<path opacity="0.2" d="M947.736 338.547C947.736 347.304 942.635 351.384 936.345 347.729C930.055 344.073 924.954 334.127 924.954 325.37C924.954 316.614 930.055 312.534 936.345 316.189C942.635 319.845 947.736 329.876 947.736 338.547Z" fill="white"/>
</g>
<defs>
<linearGradient id="paint0_linear_10_1690" x1="1235.36" y1="149.876" x2="1096.12" y2="391.239" gradientUnits="userSpaceOnUse">
<stop stop-color="#424C57"/>
<stop offset="0.903" stop-color="white" stop-opacity="0"/>
</linearGradient>
<linearGradient id="paint1_linear_10_1690" x1="1154.98" y1="133.512" x2="1015.73" y2="374.845" gradientUnits="userSpaceOnUse">
<stop stop-color="#414B56"/>
<stop offset="0.903" stop-color="white" stop-opacity="0"/>
</linearGradient>
<linearGradient id="paint2_linear_10_1690" x1="1393.82" y1="248.519" x2="1222.21" y2="545.807" gradientUnits="userSpaceOnUse">
<stop stop-color="white"/>
<stop offset="1" stop-color="white" stop-opacity="0"/>
</linearGradient>
<linearGradient id="paint3_linear_10_1690" x1="1327.95" y1="436.285" x2="1280.25" y2="518.909" gradientUnits="userSpaceOnUse">
<stop stop-color="white"/>
<stop offset="1" stop-color="white" stop-opacity="0"/>
</linearGradient>
<linearGradient id="paint4_linear_10_1690" x1="1272.52" y1="143.828" x2="1327.24" y2="298.739" gradientUnits="userSpaceOnUse">
<stop stop-color="#424C58"/>
<stop offset="1" stop-color="white" stop-opacity="0"/>
</linearGradient>
<linearGradient id="paint5_linear_10_1690" x1="1256.97" y1="487.856" x2="1166.07" y2="645.362" gradientUnits="userSpaceOnUse">
<stop stop-color="white"/>
<stop offset="1" stop-color="white" stop-opacity="0"/>
</linearGradient>
<linearGradient id="paint6_linear_10_1690" x1="1014.89" y1="638.882" x2="967.192" y2="721.507" gradientUnits="userSpaceOnUse">
<stop stop-color="#434D58"/>
<stop offset="1" stop-color="white" stop-opacity="0"/>
</linearGradient>
<linearGradient id="paint7_linear_10_1690" x1="1024.5" y1="227.714" x2="1233.97" y2="582.519" gradientUnits="userSpaceOnUse">
<stop stop-color="#546F94"/>
<stop offset="1" stop-color="white" stop-opacity="0"/>
</linearGradient>
</defs>
</svg>
